<svg xmlns="http://www.w3.org/2000/svg" version="1.1"
     xmlns:xlink="http://www.w3.org/1999/xlink" width="705" height="705" viewBox="0 0 705 705">
     <svg xml:space="preserve" width="705" height="705" data-version="2" data-id="lg_fMnmpDvknOlMEBmkdL" viewBox="0 0 705 705" x="0" y="0">
          <rect width="100%" height="100%" fill="transparent"></rect>
          <g transform="translate(352.5 352.5)scale(6.9116)">
               <linearGradient id="a" x1="0" x2="1" y1="0" y2="0" gradientUnits="objectBoundingBox">
                    <stop offset="0%" stop-color="#f00b51"></stop>
                    <stop offset="100%" stop-color="#730062"></stop>
               </linearGradient>
               <circle r="50" fill="url(#a)"></circle>
          </g>
          <g transform="translate(499.162 337.024)">
               <filter id="b" width="146.32%" height="147.96%" x="-23.16%" y="-23.98%">
                    <feGaussianBlur in="SourceAlpha" stdDeviation="3"></feGaussianBlur>
                    <feOffset dx="3" dy="3" result="oBlur"></feOffset>
                    <feFlood flood-color="#F012BE" flood-opacity="1"></feFlood>
                    <feComposite in2="oBlur" operator="in"></feComposite>
                    <feMerge>
                         <feMergeNode></feMergeNode>
                         <feMergeNode in="SourceGraphic"></feMergeNode>
                    </feMerge>
               </filter>
               <g filter="url(#b)">
                    <linearGradient id="c" x1="0" x2="1" y1="0" y2="0" gradientUnits="objectBoundingBox">
                         <stop offset="0%" stop-color="#9c7945"></stop>
                         <stop offset="49.8%" stop-color="#faf3aa"></stop>
                         <stop offset="100%" stop-color="#9c7945"></stop>
                    </linearGradient>
                    <path stroke="url(#c)" d="M656.83 456.1h23.78q0 24.41-12.37 36.14-12.36 11.73-31.22 11.73t-30.43-8.56q-11.57-8.56-23.3-30.12l-34.87-63.08-27.9 12.68v61.82h30.75v23.77h-57.69V302.99q-39 2.54-55 13-16.01 10.46-16.01 30.43 0 9.51 4.12 15.69t12.04 6.18q14.9 0 14.9-25.04h25.36q0 20.6-9.51 34.71t-30.75 14.11q-21.23 0-31.38-13.32-10.14-13.31-10.14-32.33 0-29.8 26.63-48.82 26.62-19.02 83.68-19.02h40.58v23.78h-27.58v85.27l23.46-10.78 61.18-74.49h-15.22v-23.78h71.96v23.78h-23.77l-69.43 81.78 39.63 71.96q7.92 13 13.79 18.55 5.86 5.54 14.11 5.54 8.24 0 14.42-6.5 6.18-6.49 6.18-17.59Zm-163.25 44.38h-30.75v-23.77h30.75z" transform="translate(-538.91 -391.275)"></path>
               </g>
          </g>
          <g transform="translate(193.204 346.647)scale(2.4825)">
               <filter id="d" width="159.78%" height="160.78%" x="-29.89%" y="-30.39%">
                    <feGaussianBlur in="SourceAlpha" stdDeviation="3"></feGaussianBlur>
                    <feOffset dx="3" dy="3" result="oBlur"></feOffset>
                    <feFlood flood-color="#000" flood-opacity="1"></feFlood>
                    <feComposite in2="oBlur" operator="in"></feComposite>
                    <feMerge>
                         <feMergeNode></feMergeNode>
                         <feMergeNode in="SourceGraphic"></feMergeNode>
                    </feMerge>
               </filter>
               <g filter="url(#d)" paint-order="stroke">
                    <g transform="translate(-.5 -31.49)">
                         <linearGradient id="e" x1="0" x2="1" y1="0" y2="0" gradientUnits="objectBoundingBox">
                              <stop offset="0%" stop-color="#ffa62e"></stop>
                              <stop offset="100%" stop-color="#f71b3d"></stop>
                         </linearGradient>
                         <filter id="f" width="173.8%" height="216.08%" x="-36.9%" y="-58.04%">
                              <feGaussianBlur in="SourceAlpha" stdDeviation="3"></feGaussianBlur>
                              <feOffset dx="3" dy="3" result="oBlur"></feOffset>
                              <feFlood flood-color="#000" flood-opacity="1"></feFlood>
                              <feComposite in2="oBlur" operator="in"></feComposite>
                              <feMerge>
                                   <feMergeNode></feMergeNode>
                                   <feMergeNode in="SourceGraphic"></feMergeNode>
                              </feMerge>
                         </filter>
                         <path fill="url(#e)" d="m24.55 14.44-1.17 17.08 17.08-1.18-4.77-4.77 4.77-4.77c5.27-5.264 13.81-5.264 19.08 0l4.77 4.77-4.77 4.77 17.08 1.18-1.17-17.08-4.77 4.77-4.78-4.77c-8.785-8.774-23.015-8.774-31.8 0l-4.78 4.77z" filter="url(#f)" transform="translate(-50 -19.69)"></path>
                    </g>
                    <g transform="translate(-25.085 15.505)">
                         <linearGradient id="g" x1="0" x2="1" y1="0" y2="0" gradientUnits="objectBoundingBox">
                              <stop offset="0%" stop-color="#ffa62e"></stop>
                              <stop offset="100%" stop-color="#f71b3d"></stop>
                         </linearGradient>
                         <filter id="h" width="184.08%" height="173.56%" x="-42.04%" y="-36.78%">
                              <feGaussianBlur in="SourceAlpha" stdDeviation="3"></feGaussianBlur>
                              <feOffset dx="3" dy="3" result="oBlur"></feOffset>
                              <feFlood flood-color="#000" flood-opacity="1"></feFlood>
                              <feComposite in2="oBlur" operator="in"></feComposite>
                              <feMerge>
                                   <feMergeNode></feMergeNode>
                                   <feMergeNode in="SourceGraphic"></feMergeNode>
                              </feMerge>
                         </filter>
                         <path fill="url(#g)" d="m30.45 93.5 15.38-7.52-9.56-14.2-1.75 6.51L28 76.55c-7.197-1.932-11.468-9.331-9.54-16.53l1.75-6.52 6.52 1.74-7.53-15.37L5 49.42l6.52 1.75-1.75 6.52c-3.213 11.998 3.904 24.33 15.9 27.55l6.52 1.74z" filter="url(#h)" transform="translate(-25.415 -66.685)"></path>
                    </g>
                    <g transform="translate(24.085 15.505)">
                         <linearGradient id="i" x1="0" x2="1" y1="0" y2="0" gradientUnits="objectBoundingBox">
                              <stop offset="0%" stop-color="#ffa62e"></stop>
                              <stop offset="100%" stop-color="#f71b3d"></stop>
                         </linearGradient>
                         <filter id="j" width="184.08%" height="173.56%" x="-42.04%" y="-36.78%">
                              <feGaussianBlur in="SourceAlpha" stdDeviation="3"></feGaussianBlur>
                              <feOffset dx="3" dy="3" result="oBlur"></feOffset>
                              <feFlood flood-color="#000" flood-opacity="1"></feFlood>
                              <feComposite in2="oBlur" operator="in"></feComposite>
                              <feMerge>
                                   <feMergeNode></feMergeNode>
                                   <feMergeNode in="SourceGraphic"></feMergeNode>
                              </feMerge>
                         </filter>
                         <path fill="url(#i)" d="m95 49.42-14.2-9.55-7.53 15.37 6.52-1.74 1.75 6.52c1.928 7.199-2.343 14.598-9.54 16.53l-6.52 1.74-1.75-6.52-9.56 14.2 15.38 7.53-1.74-6.52 6.51-1.74c11.996-3.22 19.113-15.552 15.9-27.55l-1.74-6.52z" filter="url(#j)" transform="translate(-74.585 -66.685)"></path>
                    </g>
                    <g transform="translate(-.5 -.68)">
                         <linearGradient id="k" x1="0" x2="1" y1="0" y2="0" gradientUnits="objectBoundingBox">
                              <stop offset="0%" stop-color="#ffa62e"></stop>
                              <stop offset="100%" stop-color="#f71b3d"></stop>
                         </linearGradient>
                         <filter id="l" width="234.74%" height="234.74%" x="-67.37%" y="-67.37%">
                              <feGaussianBlur in="SourceAlpha" stdDeviation="3"></feGaussianBlur>
                              <feOffset dx="3" dy="3" result="oBlur"></feOffset>
                              <feFlood flood-color="#000" flood-opacity="1"></feFlood>
                              <feComposite in2="oBlur" operator="in"></feComposite>
                              <feMerge>
                                   <feMergeNode></feMergeNode>
                                   <feMergeNode in="SourceGraphic"></feMergeNode>
                              </feMerge>
                         </filter>
                         <path fill="url(#k)" d="M59.5 50.5a9.5 9.5 0 1 1-19 0 9.5 9.5 0 0 1 19 0" filter="url(#l)" transform="translate(-50 -50.5)"></path>
                    </g>
               </g>
          </g>
     </svg>
</svg>